Results
version=1
nRows=4
nColumns=213
inDegrees=yes
endheader
time	platform_rx	platform_ry	platform_rz	platform_ty	pelvis_tilt	pelvis_list	pelvis_rotation	pelvis_tx	pelvis_ty	pelvis_tz	hip_flexion_r	hip_adduction_r	hip_rotation_r	knee_angle_r	knee_angle_r_beta	ankle_angle_r	subtalar_angle_r	mtp_angle_r	hip_flexion_l	hip_adduction_l	hip_rotation_l	knee_angle_l	knee_angle_l_beta	ankle_angle_l	subtalar_angle_l	mtp_angle_l	lumbar_extension	lumbar_bending	lumbar_rotation	arm_flex_r	arm_add_r	arm_rot_r	elbow_flex_r	pro_sup_r	wrist_flex_r	wrist_dev_r	arm_flex_l	arm_add_l	arm_rot_l	elbow_flex_l	pro_sup_l	wrist_flex_l	wrist_dev_l	platform_rx_u	platform_ry_u	platform_rz_u	platform_ty_u	pelvis_tilt_u	pelvis_list_u	pelvis_rotation_u	pelvis_tx_u	pelvis_ty_u	pelvis_tz_u	hip_flexion_r_u	hip_adduction_r_u	hip_rotation_r_u	knee_angle_r_u	knee_angle_r_beta_u	ankle_angle_r_u	subtalar_angle_r_u	mtp_angle_r_u	hip_flexion_l_u	hip_adduction_l_u	hip_rotation_l_u	knee_angle_l_u	knee_angle_l_beta_u	ankle_angle_l_u	subtalar_angle_l_u	mtp_angle_l_u	lumbar_extension_u	lumbar_bending_u	lumbar_rotation_u	arm_flex_r_u	arm_add_r_u	arm_rot_r_u	elbow_flex_r_u	pro_sup_r_u	wrist_flex_r_u	wrist_dev_r_u	arm_flex_l_u	arm_add_l_u	arm_rot_l_u	elbow_flex_l_u	pro_sup_l_u	wrist_flex_l_u	wrist_dev_l_u	addbrev_r.activation	addlong_r.activation	addlong_r.fiber_length	addmagDist_r.activation	addmagIsch_r.activation	addmagIsch_r.fiber_length	addmagMid_r.activation	addmagProx_r.activation	bflh_r.activation	bflh_r.fiber_length	bfsh_r.activation	edl_r.activation	edl_r.fiber_length	ehl_r.activation	ehl_r.fiber_length	fdl_r.activation	fdl_r.fiber_length	fhl_r.activation	fhl_r.fiber_length	gaslat_r.activation	gaslat_r.fiber_length	gasmed_r.activation	gasmed_r.fiber_length	glmax1_r.activation	glmax2_r.activation	glmax3_r.activation	glmed1_r.activation	glmed2_r.activation	glmed3_r.activation	glmin1_r.activation	glmin2_r.activation	glmin3_r.activation	glmin3_r.fiber_length	grac_r.activation	iliacus_r.activation	perbrev_r.activation	perbrev_r.fiber_length	perlong_r.activation	perlong_r.fiber_length	piri_r.activation	piri_r.fiber_length	psoas_r.activation	recfem_r.activation	recfem_r.fiber_length	sart_r.activation	semimem_r.activation	semimem_r.fiber_length	semiten_r.activation	semiten_r.fiber_length	soleus_r.activation	soleus_r.fiber_length	tfl_r.activation	tfl_r.fiber_length	tibant_r.activation	tibant_r.fiber_length	tibpost_r.activation	tibpost_r.fiber_length	vasint_r.activation	vasint_r.fiber_length	vaslat_r.activation	vaslat_r.fiber_length	vasmed_r.activation	vasmed_r.fiber_length	addbrev_l.activation	addlong_l.activation	addlong_l.fiber_length	addmagDist_l.activation	addmagIsch_l.activation	addmagIsch_l.fiber_length	addmagMid_l.activation	addmagProx_l.activation	bflh_l.activation	bflh_l.fiber_length	bfsh_l.activation	edl_l.activation	edl_l.fiber_length	ehl_l.activation	ehl_l.fiber_length	fdl_l.activation	fdl_l.fiber_length	fhl_l.activation	fhl_l.fiber_length	gaslat_l.activation	gaslat_l.fiber_length	gasmed_l.activation	gasmed_l.fiber_length	glmax1_l.activation	glmax2_l.activation	glmax3_l.activation	glmed1_l.activation	glmed2_l.activation	glmed3_l.activation	glmin1_l.activation	glmin2_l.activation	glmin3_l.activation	glmin3_l.fiber_length	grac_l.activation	iliacus_l.activation	perbrev_l.activation	perbrev_l.fiber_length	perlong_l.activation	perlong_l.fiber_length	piri_l.activation	piri_l.fiber_length	psoas_l.activation	recfem_l.activation	recfem_l.fiber_length	sart_l.activation	semimem_l.activation	semimem_l.fiber_length	semiten_l.activation	semiten_l.fiber_length	soleus_l.activation	soleus_l.fiber_length	tfl_l.activation	tfl_l.fiber_length	tibant_l.activation	tibant_l.fiber_length	tibpost_l.activation	tibpost_l.fiber_length	vasint_l.activation	vasint_l.fiber_length	vaslat_l.activation	vaslat_l.fiber_length	vasmed_l.activation	vasmed_l.fiber_length
      0.00937081	     20.00000000	      0.00000000	     -0.00000000	      0.25000000	     -5.74627566	     -0.01112788	     -0.00870877	      0.09698836	      0.89226139	      0.00003981	     27.72004202	    -10.13481678	    -10.07116902	     37.79022606	     37.79022606	     10.00294869	     -1.25747402	      0.00000000	     27.71215805	    -10.20474194	    -10.09667084	     37.79370909	     37.79370909	     10.26832126	     -0.00000000	     -0.00000000	     -0.36294879	      0.01009148	      0.00870614	     36.06197899	     -0.00319250	     89.90787165	      0.10789476	      0.09125228	      0.00000000	      0.00000000	     36.06253015	     -0.00594781	     89.90923869	      0.10915749	      0.09145594	     -0.00000000	     -0.00000000	     -0.00000000	     -0.00000000	     -0.00000000	      0.00000000	     64.49239333	     -1.91912651	     -1.45927737	      0.00153900	      0.05278949	      0.00707564	    -84.47250578	      4.34092977	    -15.48318122	    -64.72753080	    -64.72753080	   -911.49538076	   -230.37675682	      0.00000000	    -85.80602546	     -8.02267310	    -19.95296695	    -64.09455198	    -64.09455198	   -865.40837088	     -0.00000000	     -0.00000000	    -77.25976691	      1.69656944	      1.47123679	     12.90108367	     -0.64105169	     -0.47703232	      2.43994862	     -0.76093986	      0.00000000	     -0.00000000	     13.01434170	     -1.20713816	     -0.26815407	      2.69918825	     -0.71909417	     -0.00000000	     -0.00000000	      0.01000000	      0.01000000	      0.10365074	      0.01000000	      0.01000000	      0.15649199	      0.01000000	      0.01000000	      0.01000000	      0.09834796	      0.01000000	      0.01000000	      0.06233710	      0.01000000	      0.07120005	      0.01000000	      0.04676233	      0.01000000	      0.05401295	      0.01000000	      0.06651870	      0.01000000	      0.05791112	      0.01000000	      0.01000000	      0.01000000	      0.01000000	      0.01000000	      0.01000000	      0.01000000	      0.01000000	      0.01000000	      0.03732417	      0.01000000	      0.01000000	      0.01000000	      0.04904191	      0.01000000	      0.05521594	      0.01000000	      0.02130745	      0.01000000	      0.01000000	      0.07199494	      0.01000000	      0.01000000	      0.06714754	      0.01000000	      0.21356559	      0.01000000	      0.05395914	      0.01000000	      0.08164970	      0.01000000	      0.05867600	      0.01000000	      0.04080120	      0.01000000	      0.10784141	      0.01000000	      0.10610965	      0.01000000	      0.10525990	      0.01000000	      0.01000000	      0.10373201	      0.01000000	      0.01000000	      0.15652887	      0.01000000	      0.01000000	      0.01000000	      0.09835706	      0.01000000	      0.01000000	      0.06246568	      0.01000000	      0.07105434	      0.01000000	      0.04662479	      0.01000000	      0.05387980	      0.01000000	      0.06656545	      0.01000000	      0.05799789	      0.01000000	      0.01000000	      0.01000000	      0.01000000	      0.01000000	      0.01000000	      0.01000000	      0.01000000	      0.01000000	      0.03728407	      0.01000000	      0.01000000	      0.01000000	      0.04954576	      0.01000000	      0.05561411	      0.01000000	      0.02127812	      0.01000000	      0.01000000	      0.07198738	      0.01000000	      0.01000000	      0.06715400	      0.01000000	      0.21358561	      0.01000000	      0.05401076	      0.01000000	      0.08160978	      0.01000000	      0.05832796	      0.01000000	      0.04062343	      0.01000000	      0.10784333	      0.01000000	      0.10611151	      0.01000000	      0.10526164
      0.01066285	     20.00000000	      0.00000000	     -0.00000000	      0.25000000	     -5.65711077	     -0.01364938	     -0.01061251	      0.09699172	      0.89233333	      0.00004917	     27.60254146	    -10.12897556	    -10.09262730	     37.69980683	     37.69980683	      8.77866402	     -1.56425463	      0.00000000	     27.59291395	    -10.21523832	    -10.12403925	     37.70411726	     37.70411726	      9.10456204	     -0.00000000	     -0.00000000	     -0.46958441	      0.01230615	      0.01063043	     36.07969671	     -0.00406696	     89.90720802	      0.11122417	      0.09027451	      0.00000000	      0.00000000	     36.08040241	     -0.00759445	     89.90886009	      0.11284053	      0.09053527	     -0.00000000	     -0.00000000	     -0.00000000	     -0.00000000	     -0.00000000	      0.00000000	     73.53359017	     -1.97635938	     -1.48134524	      0.00374372	      0.05848920	      0.00739102	    -97.46229535	      4.69278169	    -17.73425833	    -75.28312129	    -75.28312129	   -981.28882012	   -243.73601098	      0.00000000	    -98.82238609	     -8.18770245	    -22.39959599	    -74.64046529	    -74.64046529	   -933.87580835	     -0.00000000	     -0.00000000	    -87.79818340	      1.72420492	      1.50144346	     14.51801000	     -0.71199576	     -0.55052091	      2.71093991	     -0.74705134	      0.00000000	      0.00000000	     14.64373152	     -1.34005573	     -0.31861026	      2.99858380	     -0.70061459	      0.00000000	      0.00000000	      0.01000000	      0.01000000	      0.10371794	      0.01000000	      0.01000000	      0.15638563	      0.01000000	      0.01000000	      0.01000000	      0.09829406	      0.01000000	      0.01000000	      0.06299857	      0.01000000	      0.07200712	      0.01000000	      0.04674052	      0.01000000	      0.05389235	      0.01000000	      0.06586320	      0.01000000	      0.05727395	      0.01000000	      0.01000000	      0.01000000	      0.01000000	      0.01000000	      0.01000000	      0.01000000	      0.01000000	      0.01000000	      0.03729878	      0.01000000	      0.01000000	      0.01000000	      0.04881644	      0.01000000	      0.05497234	      0.01000000	      0.02128274	      0.01000000	      0.01000000	      0.07201277	      0.01000000	      0.01000000	      0.06712039	      0.01000000	      0.21352210	      0.01000000	      0.05339114	      0.01000000	      0.08171572	      0.01000000	      0.05961356	      0.01000000	      0.04075606	      0.01000000	      0.10778811	      0.01000000	      0.10605749	      0.01000000	      0.10521160	      0.01000000	      0.01000000	      0.10381976	      0.01000000	      0.01000000	      0.15643260	      0.01000000	      0.01000000	      0.01000000	      0.09830612	      0.01000000	      0.01000000	      0.06316436	      0.01000000	      0.07182183	      0.01000000	      0.04654768	      0.01000000	      0.05371665	      0.01000000	      0.06592140	      0.01000000	      0.05738443	      0.01000000	      0.01000000	      0.01000000	      0.01000000	      0.01000000	      0.01000000	      0.01000000	      0.01000000	      0.01000000	      0.03724782	      0.01000000	      0.01000000	      0.01000000	      0.04945397	      0.01000000	      0.05548681	      0.01000000	      0.02124354	      0.01000000	      0.01000000	      0.07200250	      0.01000000	      0.01000000	      0.06712905	      0.01000000	      0.21354735	      0.01000000	      0.05345675	      0.01000000	      0.08166118	      0.01000000	      0.05917249	      0.01000000	      0.04051412	      0.01000000	      0.10779057	      0.01000000	      0.10605989	      0.01000000	      0.10521384
      0.01179918	     20.00000000	      0.00000000	     -0.00000000	      0.25000000	     -5.56902443	     -0.01590541	     -0.01229180	      0.09699727	      0.89240246	      0.00005767	     27.48517996	    -10.12348645	    -10.11390427	     37.60889247	     37.60889247	      7.63441495	     -1.84604732	      0.00000000	     27.47400627	    -10.22453485	    -10.15068389	     37.61392451	     37.61392451	      8.01437377	     -0.00000000	     -0.00000000	     -0.57459982	      0.01426146	      0.01233717	     36.09698555	     -0.00491001	     89.90654491	      0.11443316	      0.08944632	      0.00000000	      0.00000000	     36.09783981	     -0.00917950	     89.90847106	      0.11638936	      0.08976193	     -0.00000000	     -0.00000000	     -0.00000000	     -0.00000000	     -0.00000000	      0.00000000	     81.50571411	     -1.98882886	     -1.46986318	      0.00608598	      0.06312517	      0.00754255	   -109.13678836	      4.96269333	    -19.71359316	    -84.75554836	    -84.75554836	  -1030.89864313	   -251.65983170	      0.00000000	   -110.49444026	     -8.14707357	    -24.48657624	    -84.13256944	    -84.13256944	   -983.30248014	     -0.00000000	     -0.00000000	    -97.02822961	      1.71197285	      1.49823287	     15.90611005	     -0.77142214	     -0.61682362	      2.93489611	     -0.70627224	      0.00000000	      0.00000000	     16.04168127	     -1.44835354	     -0.36668944	      3.24495467	     -0.65621933	      0.00000000	      0.00000000	      0.01000000	      0.01000000	      0.10378619	      0.01000000	      0.01000000	      0.15627820	      0.01000000	      0.01000000	      0.01000000	      0.09823882	      0.01000000	      0.01000000	      0.06362193	      0.01000000	      0.07276743	      0.01000000	      0.04671698	      0.01000000	      0.05377215	      0.01000000	      0.06524126	      0.01000000	      0.05666636	      0.01000000	      0.01000000	      0.01000000	      0.01000000	      0.01000000	      0.01000000	      0.01000000	      0.01000000	      0.01000000	      0.03727275	      0.01000000	      0.01000000	      0.01000000	      0.04860541	      0.01000000	      0.05474121	      0.01000000	      0.02125670	      0.01000000	      0.01000000	      0.07203115	      0.01000000	      0.01000000	      0.06709249	      0.01000000	      0.21347905	      0.01000000	      0.05283723	      0.01000000	      0.08178415	      0.01000000	      0.06048517	      0.01000000	      0.04070932	      0.01000000	      0.10773355	      0.01000000	      0.10600402	      0.01000000	      0.10516228	      0.01000000	      0.01000000	      0.10390647	      0.01000000	      0.01000000	      0.15633452	      0.01000000	      0.01000000	      0.01000000	      0.09825375	      0.01000000	      0.01000000	      0.06382347	      0.01000000	      0.07254522	      0.01000000	      0.04646870	      0.01000000	      0.05355776	      0.01000000	      0.06530961	      0.01000000	      0.05679777	      0.01000000	      0.01000000	      0.01000000	      0.01000000	      0.01000000	      0.01000000	      0.01000000	      0.01000000	      0.01000000	      0.03721182	      0.01000000	      0.01000000	      0.01000000	      0.04936527	      0.01000000	      0.05536288	      0.01000000	      0.02120822	      0.01000000	      0.01000000	      0.07201815	      0.01000000	      0.01000000	      0.06710330	      0.01000000	      0.21350915	      0.01000000	      0.05291643	      0.01000000	      0.08171609	      0.01000000	      0.05996884	      0.01000000	      0.04040610	      0.01000000	      0.10773651	      0.01000000	      0.10600691	      0.01000000	      0.10516495
      0.01293550	     20.00000000	      0.00000000	     -0.00000000	      0.25000000	     -5.47187500	     -0.01815607	     -0.01394232	      0.09700569	      0.89247665	      0.00006627	     27.35443554	    -10.11771194	    -10.13742477	     37.50715183	     37.50715183	      6.43986908	     -2.13482705	      0.00000000	     27.34173122	    -10.23368992	    -10.17966296	     37.51286645	     37.51286645	      6.87357309	     -0.00000000	     -0.00000000	     -0.69007614	      0.01618420	      0.01402501	     36.11583333	     -0.00581907	     89.90580562	      0.11788900	      0.08867959	      0.00000000	      0.00000000	     36.11684673	     -0.01088296	     89.90802543	      0.12020909	      0.08905394	     -0.00000000	      0.00000000	     -0.00000000	     -0.00000000	     -0.00000000	      0.00000000	     89.48279941	     -1.96687182	     -1.43066309	      0.00878108	      0.06739159	      0.00757945	   -121.01150940	      5.19438743	    -21.68122009	    -94.32443753	    -94.32443753	  -1069.86526436	   -256.02922602	      0.00000000	   -122.34432857	     -7.93951900	    -26.50704365	    -93.75139121	    -93.75139121	  -1023.02272548	     -0.00000000	     -0.00000000	   -106.20754462	      1.66682161	      1.46809246	     17.26171151	     -0.82811600	     -0.68461094	      3.14537176	     -0.63887883	     -0.00000000	      0.00000000	     17.40606603	     -1.54852110	     -0.41820133	      3.47538887	     -0.58561728	      0.00000000	      0.00000000	      0.01000000	      0.01000000	      0.10386312	      0.01000000	      0.01000000	      0.15615757	      0.01000000	      0.01000000	      0.01000000	      0.09817601	      0.01000000	      0.01000000	      0.06427685	      0.01000000	      0.07356555	      0.01000000	      0.04668899	      0.01000000	      0.05364003	      0.01000000	      0.06458518	      0.01000000	      0.05602844	      0.01000000	      0.01000000	      0.01000000	      0.01000000	      0.01000000	      0.01000000	      0.01000000	      0.01000000	      0.01000000	      0.03724311	      0.01000000	      0.01000000	      0.01000000	      0.04838554	      0.01000000	      0.05449774	      0.01000000	      0.02122651	      0.01000000	      0.01000000	      0.07205210	      0.01000000	      0.01000000	      0.06706070	      0.01000000	      0.21343145	      0.01000000	      0.05224219	      0.01000000	      0.08186183	      0.01000000	      0.06140610	      0.01000000	      0.04065622	      0.01000000	      0.10767160	      0.01000000	      0.10594322	      0.01000000	      0.10510637	      0.01000000	      0.01000000	      0.10400214	      0.01000000	      0.01000000	      0.15622348	      0.01000000	      0.01000000	      0.01000000	      0.09819404	      0.01000000	      0.01000000	      0.06451667	      0.01000000	      0.07330505	      0.01000000	      0.04638028	      0.01000000	      0.05338735	      0.01000000	      0.06466337	      0.01000000	      0.05617859	      0.01000000	      0.01000000	      0.01000000	      0.01000000	      0.01000000	      0.01000000	      0.01000000	      0.01000000	      0.01000000	      0.03717201	      0.01000000	      0.01000000	      0.01000000	      0.04926996	      0.01000000	      0.05522935	      0.01000000	      0.02116847	      0.01000000	      0.01000000	      0.07203608	      0.01000000	      0.01000000	      0.06707387	      0.01000000	      0.21346658	      0.01000000	      0.05233465	      0.01000000	      0.08178015	      0.01000000	      0.06080237	      0.01000000	      0.04028824	      0.01000000	      0.10767505	      0.01000000	      0.10594660	      0.01000000	      0.10510948
